<svg width="248" height="248" viewBox="0 0 248 248" fill="none" xmlns="http://www.w3.org/2000/svg">
<path d="M221.95 73.29C222.1 75.46 222.1 77.63 222.1 79.82C222.1 146.55 171.3 223.51 78.41 223.51V223.47C50.97 223.51 24.1 215.65 1 200.83C4.99 201.31 9 201.55 13.02 201.56C35.76 201.58 57.85 193.95 75.74 179.9C54.13 179.49 35.18 165.4 28.56 144.83C36.13 146.29 43.93 145.99 51.36 143.96C27.8 139.2 10.85 118.5 10.85 94.46V93.82C17.87 97.73 25.73 99.9 33.77 100.14C11.58 85.31 4.74 55.79 18.14 32.71C43.78 64.26 81.61 83.44 122.22 85.47C118.15 67.93 123.71 49.55 136.83 37.22C157.17 18.1 189.16 19.08 208.28 39.41C219.59 37.18 230.43 33.03 240.35 27.15C236.58 38.84 228.69 48.77 218.15 55.08C228.16 53.9 237.94 51.22 247.15 47.13C240.37 57.29 231.83 66.14 221.95 73.29Z" fill="#1D9BF0"/>
</svg>
